<?xml version="1.0" encoding="utf-8"?>
<!-- Generator: Adobe Illustrator 20.1.0, SVG Export Plug-In . SVG Version: 6.00 Build 0)  -->
<svg version="1.1" id="Calque_1" xmlns="http://www.w3.org/2000/svg" xmlns:xlink="http://www.w3.org/1999/xlink" x="0px" y="0px"
	 viewBox="0 0 200 100" style="enable-background:new 0 0 200 100;" xml:space="preserve">
<style type="text/css">
	.st0{fill:#020203;}
</style>
<g>
	<path class="st0" d="M88.3,12.7c4.8,0,9.5,0,12.9-0.2l-0.5,2.1c-7.2,0.2-8.8,1.4-10.7,8.8L76.4,75c-1.9,7.6-0.7,8.6,6.2,8.8
		L82.1,86c-3.3-0.2-8.1-0.2-12.9-0.2c-5.5,0-10.5,0-13.6,0.2l0.5-2.1c7.2-0.2,8.8-1.4,10.7-8.8l15-56.1L38.7,86.7h-2.4l-6.9-68.5
		L14.6,74c-1.9,7.6-1,9.5,6.9,10L21,86.2C18.6,86,14.1,86,10.5,86s-7.4,0-9.8,0.2L1.2,84c7.2-0.2,8.8-2.4,11-10l13.6-50.6
		c1.9-7.6,0.7-8.6-6.2-8.8l0.5-2.1c2.1,0.2,5.7,0.2,9.3,0.2c3.1,0,6.7,0,9.1-0.2L44.2,74l39.1-61.3H88.3z"/>
	<path class="st0" d="M197.9,12.4l-0.5,2.1c-2.9,0.7-6.7,2.4-9.8,9.1l-31,63h-1.7l-7.4-47.5l-28.4,47.5h-1.7l-8.4-65.4
		c-0.7-5.5-3.6-6.4-5.7-6.7l0.5-2.1c2.9,0.2,6.4,0.2,10.3,0.2c4.5,0,8.8,0,11.2-0.2l-0.5,2.1c-4.8,0.2-6.7,1.7-5.7,8.8l5.7,49.4
		l21.7-37L144.2,21c-0.7-5.3-2.9-6.4-4.8-6.7l0.7-1.9c2.4,0.2,5.7,0.2,9.3,0.2c5.5,0,10.5,0,13.4-0.2l-0.5,2.1
		c-7.2,0.2-9.1,1.7-7.9,8.8l7.4,47.3l20.3-41.3c6-11.9,4.1-14.6-4.5-14.8l0.5-2.1c3.8,0.2,8.1,0.2,11.9,0.2
		C193.3,12.7,195.7,12.7,197.9,12.4z"/>
</g>
</svg>
